<svg width="64" height="63" viewBox="0 0 64 63" fill="none" xmlns="http://www.w3.org/2000/svg">
<path d="M51.359 9.84375H11.8523C10.7613 9.84375 9.87695 10.7252 9.87695 11.8125V51.1875C9.87695 52.2748 10.7613 53.1562 11.8523 53.1562H51.359C52.4499 53.1562 53.3343 52.2748 53.3343 51.1875V11.8125C53.3343 10.7252 52.4499 9.84375 51.359 9.84375Z" stroke="#099DBA" stroke-width="2" stroke-linecap="round" stroke-linejoin="round"/>
<path d="M43.457 5.90625V13.7812" stroke="#099DBA" stroke-width="2" stroke-linecap="round" stroke-linejoin="round"/>
<path d="M19.7529 5.90625V13.7812" stroke="#099DBA" stroke-width="2" stroke-linecap="round" stroke-linejoin="round"/>
<path d="M9.87695 21.6562H53.3343" stroke="#099DBA" stroke-width="2" stroke-linecap="round" stroke-linejoin="round"/>
<path d="M22.7168 31.499H29.6305L25.6798 36.4209C26.3294 36.4209 26.969 36.5805 27.5419 36.8857C28.1148 37.1908 28.6034 37.6321 28.9643 38.1703C29.3253 38.7086 29.5475 39.3273 29.6114 39.9716C29.6752 40.6159 29.5786 41.2659 29.3302 41.8641C29.0818 42.4623 28.6892 42.9903 28.1872 43.4012C27.6853 43.8121 27.0894 44.0933 26.4523 44.2199C25.8153 44.3465 25.1567 44.3146 24.535 44.127C23.9133 43.9394 23.3476 43.6018 22.888 43.1443" stroke="#099DBA" stroke-width="2" stroke-linecap="round" stroke-linejoin="round"/>
<path d="M35.5557 34.4521L39.5063 31.499V44.2959" stroke="#099DBA" stroke-width="2" stroke-linecap="round" stroke-linejoin="round"/>
</svg>
