<svg width="16" height="23" viewBox="0 0 16 23" fill="none" xmlns="http://www.w3.org/2000/svg">
<path d="M11.1706 13.0655C11.0642 12.7019 10.951 12.3394 10.8208 11.9871C10.7574 11.8104 10.6906 11.6359 10.6159 11.4671C10.5412 11.3005 10.4585 11.135 10.36 11.0034C10.3125 10.9392 10.2559 10.884 10.2197 10.8705C10.2015 10.8627 10.1993 10.8683 10.2015 10.8705V10.8717L10.1902 10.8739C10.1857 10.875 10.1823 10.8762 10.1834 10.8773C10.1834 10.8784 10.1868 10.8795 10.1846 10.8807C10.1732 10.8908 10.1246 10.9561 10.0906 11.0259C10.0544 11.0968 10.0204 11.1778 9.98871 11.26C9.86418 11.5943 9.76909 11.9567 9.67852 12.3181C9.49512 13.0418 9.33776 13.7791 9.19173 14.5175C9.04342 15.257 8.89286 15.9954 8.75475 16.7383L8.54758 17.8526L8.33248 18.967C8.26003 19.3396 8.18871 19.7133 8.10946 20.0892C8.03022 20.4663 7.94871 20.8434 7.83776 21.234C7.78229 21.4298 7.71777 21.6279 7.6238 21.8384C7.57852 21.9431 7.52192 22.0534 7.4506 22.1671C7.37927 22.2796 7.28531 22.4035 7.1438 22.5216C7.00569 22.6387 6.79739 22.74 6.59022 22.7648C6.38418 22.7929 6.17814 22.758 6.02191 22.6972C5.70493 22.5723 5.51361 22.3967 5.34493 22.2335C5.01776 21.9003 4.79248 21.5604 4.57625 21.2204C4.36455 20.8794 4.17437 20.5406 3.99323 20.1973C3.2755 18.8207 2.67889 17.3855 2.21361 15.9121C1.76191 14.4342 1.40531 12.9293 1.21512 11.3973C1.16531 11.0146 1.12569 10.6308 1.09399 10.2447C1.07927 10.0511 1.06682 9.85862 1.05776 9.66051C1.0521 9.46353 1.04984 9.27443 1.04984 9.08195C1.04871 8.31429 1.07701 7.54663 1.13701 6.78347C1.27172 5.25828 1.51852 3.74547 1.92606 2.27881L1.99286 2.29119C1.71323 3.77811 1.54795 5.28529 1.49361 6.79585C1.45059 8.30641 1.48342 9.82372 1.73927 11.3151C1.9804 12.8077 2.34493 14.2789 2.81814 15.7151C3.29361 17.1503 3.88003 18.5494 4.5921 19.8832C4.76871 20.2175 4.94871 20.5496 5.14682 20.8704C5.34493 21.1901 5.5555 21.5052 5.81474 21.7709C5.94493 21.9014 6.08871 22.0208 6.25286 22.0849C6.41474 22.1491 6.59814 22.1322 6.72946 22.0185C6.86305 21.9093 6.95361 21.7427 7.03059 21.5761C7.10757 21.4073 7.16758 21.2295 7.22305 21.0505C7.43701 20.329 7.58644 19.5849 7.74833 18.8466C7.90569 18.1059 8.06418 17.3653 8.22833 16.6257C8.39248 15.8862 8.56229 15.1478 8.74229 14.4117C8.9223 13.6755 9.11135 12.9416 9.33211 12.2156C9.44418 11.8532 9.56079 11.4907 9.71475 11.1407C9.75437 11.054 9.79513 10.9662 9.84607 10.8829C9.89701 10.8007 9.95022 10.7152 10.0419 10.6544C10.0895 10.624 10.1461 10.6128 10.1981 10.6116C10.2547 10.6116 10.3102 10.6308 10.3532 10.6589C10.4427 10.7163 10.5027 10.7985 10.5559 10.8795C10.6589 11.045 10.7325 11.2228 10.7981 11.4018C10.8638 11.5808 10.9193 11.7631 10.9713 11.9455C11.0744 12.3113 11.1581 12.6816 11.2351 13.052L11.1706 13.0655Z" fill="white"/>
<path d="M0.719727 1.92206C1.23709 1.47969 1.83595 1.13076 2.47218 0.853859C2.79256 0.719912 3.12312 0.607351 3.46048 0.511675C3.79897 0.415999 4.15218 0.357467 4.50539 0.314694C4.68199 0.294434 4.85973 0.2798 5.03747 0.271921C5.1269 0.266293 5.2152 0.266294 5.3035 0.266294C5.3918 0.266294 5.48011 0.265168 5.56841 0.268544C5.92162 0.273047 6.27029 0.309066 6.61671 0.350714C6.78992 0.3721 6.96199 0.399114 7.13181 0.429506C7.30275 0.457646 7.47143 0.49254 7.64124 0.526308C7.9786 0.599472 8.31143 0.682767 8.642 0.772815C9.96086 1.14314 11.2367 1.65754 12.4277 2.31714C13.6231 2.96662 14.7405 3.75341 15.7186 4.68879L15.6812 4.74507C15.1243 4.3815 14.5548 4.03594 13.9741 3.71289C13.3945 3.38647 12.8024 3.08255 12.199 2.80228C10.9933 2.24173 9.74124 1.77685 8.45973 1.42341C7.82011 1.24332 7.17143 1.09023 6.51596 0.983302C5.86048 0.87637 5.19596 0.821216 4.53482 0.851607C3.87369 0.881998 3.21709 1.01032 2.58312 1.2028C1.9469 1.3919 1.33444 1.65641 0.754821 1.98059L0.719727 1.92206Z" fill="white"/>
<path d="M12.5405 4.84429C12.3786 4.97373 12.193 5.10093 11.9541 5.11331C11.8352 5.11894 11.713 5.07729 11.6111 5.01426C11.5092 4.9501 11.4265 4.86455 11.3564 4.77338C11.2148 4.5899 11.1265 4.38054 11.0586 4.1678C10.9918 3.95506 10.9499 3.73557 10.9307 3.5127C10.9216 3.40127 10.9296 3.28983 10.9409 3.17952C10.9533 3.06921 10.9658 2.95778 10.9862 2.84859C11.0247 2.6291 11.0881 2.41186 11.1752 2.2025C11.2647 1.99089 11.3745 1.80066 11.4979 1.61719C11.6224 1.43371 11.7605 1.25924 11.9258 1.09941C12.0922 0.941823 12.2847 0.789867 12.545 0.7122C12.6096 0.693065 12.6797 0.681808 12.7499 0.677306C12.8201 0.675055 12.8971 0.679557 12.9628 0.69419C13.0975 0.721205 13.2265 0.779736 13.333 0.855151C13.5492 1.00711 13.6873 1.20859 13.7994 1.40782C13.9092 1.60818 13.9896 1.81529 14.0575 2.0224C14.1911 2.43775 14.2726 2.8576 14.3348 3.27745C14.396 3.6973 14.4367 4.11827 14.4639 4.53812C14.5182 5.37782 14.5194 6.2209 14.499 7.05385C14.4831 7.88905 14.4469 8.72874 14.3598 9.56619C14.2726 10.4025 14.139 11.2377 13.9352 12.0583C13.6647 12.862 13.3296 13.6431 12.8937 14.3613C13.1643 13.5688 13.3635 12.764 13.4948 11.9502C13.6941 11.1544 13.8231 10.3395 13.9092 9.52004C13.9941 8.69948 14.0303 7.87441 14.0462 7.04484C14.0677 6.21415 14.0654 5.39021 14.0122 4.56739C13.9862 4.15655 13.9465 3.74795 13.8877 3.34273C13.8277 2.93977 13.7484 2.53905 13.6273 2.16085C13.5662 1.97288 13.4937 1.7894 13.4031 1.62394C13.3126 1.46073 13.2016 1.31215 13.0737 1.22322C13.0103 1.1782 12.9435 1.14893 12.8733 1.1343C12.8043 1.11967 12.7431 1.12304 12.6707 1.14443C12.5269 1.18495 12.3752 1.29301 12.2416 1.42246C11.9745 1.68472 11.7447 2.03028 11.593 2.37584C11.4447 2.72703 11.3824 3.11874 11.3869 3.50595C11.362 3.8909 11.3982 4.2995 11.5658 4.64055C11.6496 4.80827 11.7786 4.95347 11.962 4.98274C12.1477 5.01425 12.356 4.93997 12.5405 4.84429Z" fill="white"/>
</svg>
